<svg width="211" height="201" viewBox="0 0 211 201" fill="none" xmlns="http://www.w3.org/2000/svg">
<path d="M106.159 59.6719C96.9281 65.325 90.3344 73.4906 87.6969 82.9125C87.0375 84.7969 85.0594 86.6812 83.0813 87.3094C82.4219 87.3094 81.7625 87.3094 81.7625 87.3094C79.7844 87.3094 78.4656 86.6813 77.1469 85.425C70.5531 78.5156 61.9812 75.375 52.75 75.375C44.8375 75.375 37.5844 77.8875 31.65 82.2844C29.6719 83.5406 27.6937 84.1688 25.0562 83.5406C23.0781 82.9125 21.1 81.0281 20.4406 79.1438C20.4406 76.0031 19.7812 72.2344 19.7812 69.0938C19.7812 44.5969 40.2219 25.125 65.9375 25.125C84.4 25.125 100.884 35.8031 108.797 52.1344C109.456 54.6469 108.797 57.7875 106.159 59.6719Z" fill="#FFC10A"/>
<path d="M204.406 94.2188C204.406 125.625 174.734 150.75 138.469 150.75H52.75C27.0344 150.75 6.59375 131.278 6.59375 106.781C6.59375 93.5906 12.5281 81.6563 23.0781 72.8625C31.65 66.5813 42.2 62.8125 52.75 62.8125C61.9812 62.8125 71.2125 65.325 78.4656 70.35C83.0812 62.1844 89.675 54.6469 98.2469 48.9938C110.116 41.4563 123.962 37.6875 138.469 37.6875C174.734 37.6875 204.406 62.8125 204.406 94.2188Z" fill="#607C8B"/>
</svg>
